<svg xmlns="http://www.w3.org/2000/svg" width="30" height="30" viewBox="0 0 30 30"><defs><linearGradient id="a" x1="50%" x2="50%" y1="0%" y2="100%"><stop offset="0%" stop-color="#FF4040"/><stop offset="100%" stop-color="#FF1E1E"/></linearGradient></defs><g fill="none" fill-rule="evenodd" transform="translate(3 3)"><circle cx="12" cy="12" r="13.25" fill="url(#a)" stroke="#FFF" stroke-width="2.5"/><path fill="#FFF" fill-rule="nonzero" d="M4.5,1.5 L4.5,0 L9,0 L9,1.5 L4.5,1.5 Z M6.75,15.75 C5.825,15.75 4.953125,15.571875 4.134375,15.215625 C3.315625,14.859375 2.6,14.375 1.9875,13.7625 C1.375,13.15 0.890625,12.434375 0.534375,11.615625 C0.178125,10.796875 0,9.925 0,9 C0,8.075 0.178125,7.203125 0.534375,6.384375 C0.890625,5.565625 1.375,4.85 1.9875,4.2375 C2.6,3.625 3.315625,3.140625 4.134375,2.784375 C4.953125,2.428125 5.825,2.25 6.75,2.25 C7.525,2.25 8.26875,2.375 8.98125,2.625 C9.69375,2.875 10.3625,3.2375 10.9875,3.7125 L12.0375,2.6625 L13.0875,3.7125 L12.0375,4.7625 C12.5125,5.3875 12.875,6.05625 13.125,6.76875 C13.375,7.48125 13.5,8.225 13.5,9 C13.5,9.925 13.321875,10.796875 12.965625,11.615625 C12.609375,12.434375 12.125,13.15 11.5125,13.7625 C10.9,14.375 10.184375,14.859375 9.365625,15.215625 C8.546875,15.571875 7.675,15.75 6.75,15.75 Z M6.75,14.25 C8.2,14.25 9.4375,13.7375 10.4625,12.7125 C11.4875,11.6875 12,10.45 12,9 C12,7.55 11.4875,6.3125 10.4625,5.2875 C9.4375,4.2625 8.2,3.75 6.75,3.75 C5.3,3.75 4.0625,4.2625 3.0375,5.2875 C2.0125,6.3125 1.5,7.55 1.5,9 C1.5,10.45 2.0125,11.6875 3.0375,12.7125 C4.0625,13.7375 5.3,14.25 6.75,14.25 Z" transform="translate(5.25 3.75)"/><polygon fill="#FFF" points="10 14.5 14 14.5 14 10.5 10 10.5"/></g></svg>