<svg xmlns="http://www.w3.org/2000/svg" width="30" height="30" viewBox="0 0 30 30"><defs><linearGradient id="a" x1="50%" x2="50%" y1="-56.527%" y2="100%"><stop offset="0%" stop-color="#64ED1F"/><stop offset="100%" stop-color="#35D60E"/></linearGradient></defs><g fill="none" fill-rule="evenodd" transform="translate(3 3)"><circle cx="12" cy="12" r="13.25" fill="url(#a)" stroke="#FFF" stroke-width="2.5"/><path fill="#FFF" fill-rule="nonzero" d="M9.75,5.5 L9.75,4 L14.25,4 L14.25,5.5 L9.75,5.5 Z M12,19.75 C11.075,19.75 10.203125,19.571875 9.384375,19.215625 C8.565625,18.859375 7.85,18.375 7.2375,17.7625 C6.625,17.15 6.140625,16.434375 5.784375,15.615625 C5.428125,14.796875 5.25,13.925 5.25,13 C5.25,12.075 5.428125,11.203125 5.784375,10.384375 C6.140625,9.565625 6.625,8.85 7.2375,8.2375 C7.85,7.625 8.565625,7.140625 9.384375,6.784375 C10.203125,6.428125 11.075,6.25 12,6.25 C12.775,6.25 13.51875,6.375 14.23125,6.625 C14.94375,6.875 15.6125,7.2375 16.2375,7.7125 L17.2875,6.6625 L18.3375,7.7125 L17.2875,8.7625 C17.7625,9.3875 18.125,10.05625 18.375,10.76875 C18.625,11.48125 18.75,12.225 18.75,13 C18.75,13.925 18.571875,14.796875 18.215625,15.615625 C17.859375,16.434375 17.375,17.15 16.7625,17.7625 C16.15,18.375 15.434375,18.859375 14.615625,19.215625 C13.796875,19.571875 12.925,19.75 12,19.75 Z M12,18.25 C13.45,18.25 14.6875,17.7375 15.7125,16.7125 C16.7375,15.6875 17.25,14.45 17.25,13 C17.25,11.55 16.7375,10.3125 15.7125,9.2875 C14.6875,8.2625 13.45,7.75 12,7.75 C10.55,7.75 9.3125,8.2625 8.2875,9.2875 C7.2625,10.3125 6.75,11.55 6.75,13 C6.75,14.45 7.2625,15.6875 8.2875,16.7125 C9.3125,17.7375 10.55,18.25 12,18.25 Z M10.5,16 L15,13 L10.5,10 L10.5,16 Z"/></g></svg>