<?xml version="1.0" encoding="UTF-8"?>
<svg viewBox="0 0 28 28" xmlns="https://www.w3.org/2000/svg">
<g transform="translate(2 2)" fill-rule="evenodd">
<circle cx="12" cy="12" r="13" fill="#534BE5" stroke="#FFF" stroke-width="2"/>
<path transform="translate(5.25 3.75)" d="m4.5 1.5v-1.5h4.5v1.5h-4.5zm1.5 8.25h1.5v-4.5h-1.5v4.5zm0.75 6c-0.925 0-1.7969-0.17812-2.6156-0.53438s-1.5344-0.84062-2.1469-1.4531-1.0969-1.3281-1.4531-2.1469-0.53438-1.6906-0.53438-2.6156 0.17812-1.7969 0.53438-2.6156 0.84062-1.5344 1.4531-2.1469 1.3281-1.0969 2.1469-1.4531 1.6906-0.53438 2.6156-0.53438c0.775 0 1.5188 0.125 2.2312 0.375s1.3812 0.6125 2.0062 1.0875l1.05-1.05 1.05 1.05-1.05 1.05c0.475 0.625 0.8375 1.2938 1.0875 2.0062s0.375 1.4562 0.375 2.2312c0 0.925-0.17812 1.7969-0.53438 2.6156s-0.84062 1.5344-1.4531 2.1469-1.3281 1.0969-2.1469 1.4531-1.6906 0.53438-2.6156 0.53438zm0-1.5c1.45 0 2.6875-0.5125 3.7125-1.5375s1.5375-2.2625 1.5375-3.7125-0.5125-2.6875-1.5375-3.7125-2.2625-1.5375-3.7125-1.5375-2.6875 0.5125-3.7125 1.5375-1.5375 2.2625-1.5375 3.7125 0.5125 2.6875 1.5375 3.7125 2.2625 1.5375 3.7125 1.5375z" fill="#FFF" fill-rule="nonzero"/>
</g>
</svg>
