<svg width="25" height="25" xmlns="http://www.w3.org/2000/svg"><path d="M12.51 0C5.592 0 0 5.73 0 12.817c0 5.665 3.583 10.461 8.554 12.159.622.127.85-.276.85-.615 0-.298-.021-1.316-.021-2.377-3.48.764-4.205-1.528-4.205-1.528-.56-1.486-1.388-1.867-1.388-1.867-1.139-.785.083-.785.083-.785 1.264.084 1.927 1.315 1.927 1.315 1.118 1.952 2.92 1.4 3.645 1.061.103-.827.435-1.4.787-1.719-2.776-.297-5.696-1.4-5.696-6.323 0-1.4.497-2.547 1.284-3.438-.124-.318-.56-1.634.125-3.395 0 0 1.056-.34 3.438 1.316a11.84 11.84 0 013.127-.425c1.057 0 2.133.149 3.128.425 2.382-1.656 3.438-1.316 3.438-1.316.684 1.761.249 3.077.124 3.395.808.891 1.285 2.037 1.285 3.438 0 4.923-2.92 6.005-5.717 6.323.456.404.85 1.167.85 2.377 0 1.719-.021 3.098-.021 3.522 0 .34.227.743.849.616C21.416 23.278 25 18.482 25 12.816 25.02 5.73 19.407 0 12.51 0z" fill="#24292F" fill-rule="evenodd"/></svg>