<svg xmlns="http://www.w3.org/2000/svg" width="36" height="144" viewBox="0 0 36 144"><defs><radialGradient id="a" cx="50%" cy="50%" r="100%" fx="50%" fy="50%"><stop offset="0%" stop-color="#05E1FF"/><stop offset="100%" stop-color="#02BFFF"/></radialGradient><linearGradient id="b" x1="50%" x2="50%" y1="50%" y2="100%"><stop offset="0%" stop-color="#FF0202"/><stop offset="100%" stop-color="#CB0000"/></linearGradient></defs><g fill="none" fill-rule="evenodd"><g transform="translate(2 38)"><circle cx="16" cy="16" r="17" fill="#02BFFF" stroke="url(#a)" stroke-width="2"/><path fill="#FFF" fill-rule="nonzero" d="M0,11 L0,9 C0.633333333,9 1.10416667,8.83333333 1.4125,8.5 C1.72083333,8.16666667 2.36666667,8 3.35,8 C4.33333333,8 4.97916667,8.16666667 5.2875,8.5 C5.59583333,8.83333333 6.05,9 6.65,9 C7.28333333,9 7.75416667,8.83333333 8.0625,8.5 C8.37083333,8.16666667 9.01666667,8 10,8 C10.95,8 11.5958333,8.16666667 11.9375,8.5 C12.2791667,8.83333333 12.75,9 13.35,9 C13.9833333,9 14.4458333,8.83333333 14.7375,8.5 C15.0291667,8.16666667 15.6666667,8 16.65,8 C17.6333333,8 18.2791667,8.16666667 18.5875,8.5 C18.8958333,8.83333333 19.3666667,9 20,9 L20,11 C19.05,11 18.4041667,10.8333333 18.0625,10.5 C17.7208333,10.1666667 17.25,10 16.65,10 C16.05,10 15.5958333,10.1666667 15.2875,10.5 C14.9791667,10.8333333 14.3333333,11 13.35,11 C12.4,11 11.7541667,10.8333333 11.4125,10.5 C11.0708333,10.1666667 10.6,10 10,10 C9.36666667,10 8.89583333,10.1666667 8.5875,10.5 C8.27916667,10.8333333 7.63333333,11 6.65,11 C5.66666667,11 5.02916667,10.8333333 4.7375,10.5 C4.44583333,10.1666667 3.98333333,10 3.35,10 C2.71666667,10 2.24583333,10.1666667 1.9375,10.5 C1.62916667,10.8333333 0.983333333,11 0,11 Z M0,7 L0,5 C0.633333333,5 1.10416667,4.83333333 1.4125,4.5 C1.72083333,4.16666667 2.36666667,4 3.35,4 C4.3,4 4.9375,4.16666667 5.2625,4.5 C5.5875,4.83333333 6.05,5 6.65,5 C7.28333333,5 7.75416667,4.83333333 8.0625,4.5 C8.37083333,4.16666667 9.01666667,4 10,4 C10.95,4 11.5916667,4.16666667 11.925,4.5 C12.2583333,4.83333333 12.7166667,5 13.3,5 C13.9333333,5 14.4041667,4.83333333 14.7125,4.5 C15.0208333,4.16666667 15.6666667,4 16.65,4 C17.6,4 18.2458333,4.16666667 18.5875,4.5 C18.9291667,4.83333333 19.4,5 20,5 L20,7 C19.0166667,7 18.3625,6.83333333 18.0375,6.5 C17.7125,6.16666667 17.25,6 16.65,6 C16.05,6 15.5958333,6.16666667 15.2875,6.5 C14.9791667,6.83333333 14.3333333,7 13.35,7 C12.4,7 11.7541667,6.83333333 11.4125,6.5 C11.0708333,6.16666667 10.6,6 10,6 C9.36666667,6 8.90416667,6.16666667 8.6125,6.5 C8.32083333,6.83333333 7.68333333,7 6.7,7 C5.71666667,7 5.0625,6.83333333 4.7375,6.5 C4.4125,6.16666667 3.95,6 3.35,6 C2.75,6 2.27916667,6.16666667 1.9375,6.5 C1.59583333,6.83333333 0.95,7 0,7 Z M0,3 L0,1 C0.633333333,1 1.10416667,0.833333333 1.4125,0.5 C1.72083333,0.166666667 2.36666667,0 3.35,0 C4.3,0 4.9375,0.166666667 5.2625,0.5 C5.5875,0.833333333 6.05,1 6.65,1 C7.28333333,1 7.75416667,0.833333333 8.0625,0.5 C8.37083333,0.166666667 9.01666667,0 10,0 C10.95,0 11.5916667,0.166666667 11.925,0.5 C12.2583333,0.833333333 12.7166667,1 13.3,1 C13.9333333,1 14.4041667,0.833333333 14.7125,0.5 C15.0208333,0.166666667 15.6666667,0 16.65,0 C17.6,0 18.2458333,0.166666667 18.5875,0.5 C18.9291667,0.833333333 19.4,1 20,1 L20,3 C19.0166667,3 18.3625,2.83333333 18.0375,2.5 C17.7125,2.16666667 17.25,2 16.65,2 C16.05,2 15.5958333,2.16666667 15.2875,2.5 C14.9791667,2.83333333 14.3333333,3 13.35,3 C12.4,3 11.7541667,2.83333333 11.4125,2.5 C11.0708333,2.16666667 10.6,2 10,2 C9.36666667,2 8.90416667,2.16666667 8.6125,2.5 C8.32083333,2.83333333 7.68333333,3 6.7,3 C5.71666667,3 5.0625,2.83333333 4.7375,2.5 C4.4125,2.16666667 3.95,2 3.35,2 C2.75,2 2.27916667,2.16666667 1.9375,2.5 C1.59583333,2.83333333 0.95,3 0,3 Z" transform="translate(6 11)"/></g><g transform="translate(2 2)"><circle cx="16" cy="16" r="17" fill="#FD0602" stroke="url(#b)" stroke-width="2"/><path fill="#FFF" fill-rule="nonzero" d="M0,12 L6,4 L10.5,10 L18,10 L13,3.35 L10.5,6.65 L9.25,5 L13,0 L22,12 L0,12 Z M4,10 L8,10 L6,7.325 L4,10 Z M4,10.0375 L8,10.0375 L4,10.0375 Z" transform="translate(5 10)"/></g><g transform="translate(2 74)"><circle cx="16" cy="16" r="17" fill="#313131" stroke="#0E0E0E" stroke-width="2"/><path fill="#FFF" fill-rule="nonzero" d="M0,20.15 L0,3.15 L6.25,3.15 C6.16666667,3.48333333 6.1,3.81666667 6.05,4.15 C6,4.48333333 5.98333333,4.81666667 6,5.15 L2,5.15 L2,11.15 L9.25,11.15 L9.65,13.15 L13,13.15 L13,12 C13.3333333,12 13.6666667,11.975 14,11.925 C14.3333333,11.875 14.6666667,11.8 15,11.7 L15,15.15 L8,15.15 L7.6,13.15 L2,13.15 L2,20.15 L0,20.15 Z M12.275,7.25 L15.75,3.8 L14.7,2.75 L12.275,5.125 L11.3,4.15 L10.25,5.225 L12.275,7.25 Z M13,0 C14.3833333,0 15.5625,0.4875 16.5375,1.4625 C17.5125,2.4375 18,3.61666667 18,5 C18,6.38333333 17.5125,7.5625 16.5375,8.5375 C15.5625,9.5125 14.3833333,10 13,10 C11.6166667,10 10.4375,9.5125 9.4625,8.5375 C8.4875,7.5625 8,6.38333333 8,5 C8,3.61666667 8.4875,2.4375 9.4625,1.4625 C10.4375,0.4875 11.6166667,0 13,0 Z" transform="translate(9 5)"/></g><g transform="translate(2 110)"><circle cx="16" cy="16" r="17" fill="#313131" stroke="#0E0E0E" stroke-width="2"/><path fill="#FFF" fill-rule="nonzero" d="M4,2 L6,2 L6,0 L4,0 L4,2 Z M8,2 L8,0 L10,0 L10,2 L8,2 Z M4,10 L4,8 L6,8 L6,10 L4,10 Z M12,6 L12,4 L14,4 L14,6 L12,6 Z M12,10 L12,8 L14,8 L14,10 L12,10 Z M8,10 L8,8 L10,8 L10,10 L8,10 Z M12,2 L12,0 L14,0 L14,2 L12,2 Z M6,4 L6,2 L8,2 L8,4 L6,4 Z M0,16 L0,0 L2,0 L2,2 L4,2 L4,4 L2,4 L2,6 L4,6 L4,8 L2,8 L2,16 L0,16 Z M10,8 L10,6 L12,6 L12,8 L10,8 Z M6,8 L6,6 L8,6 L8,8 L6,8 Z M4,6 L4,4 L6,4 L6,6 L4,6 Z M8,6 L8,4 L10,4 L10,6 L8,6 Z M10,4 L10,2 L12,2 L12,4 L10,4 Z" transform="translate(9 8)"/></g></g></svg>